<svg width="1066" height="340" viewBox="0 0 1066 340" fill="none" xmlns="http://www.w3.org/2000/svg">
<path d="M4.04759 332V280.704L121.182 173.477C130.876 164.209 139.026 155.846 145.631 148.388C152.343 140.931 157.403 133.58 160.812 126.336C164.328 118.985 166.086 111.048 166.086 102.526C166.086 93.044 163.955 84.8942 159.694 78.076C155.433 71.1513 149.573 65.8246 142.116 62.0959C134.765 58.3672 126.295 56.5028 116.707 56.5028C107.013 56.5028 98.4901 58.527 91.1392 62.5753C83.7884 66.517 78.0888 72.2166 74.0405 79.674C70.0987 87.0248 68.1278 95.8672 68.1278 106.201H0.37216C0.37216 84.5746 5.27273 65.8246 15.0739 49.951C24.875 34.0774 38.5646 21.826 56.1428 13.1967C73.7209 4.56746 94.0689 0.252829 117.187 0.252829C140.944 0.252829 161.612 4.40766 179.19 12.7173C196.874 20.9204 210.564 32.3729 220.259 47.0746C230.06 61.6697 234.96 78.5021 234.96 97.5717C234.96 109.93 232.51 122.181 227.609 134.326C222.709 146.364 214.026 159.734 201.562 174.436C189.097 189.031 171.466 206.609 148.668 227.17L102.805 271.755V273.832H239.275V332H4.04759ZM395.632 339.351C367.933 339.244 344.07 332.479 324.041 319.056C304.119 305.633 288.779 286.19 278.019 260.729C267.365 235.161 262.092 204.532 262.198 168.843C262.198 133.048 267.525 102.579 278.178 77.4368C288.938 52.2947 304.279 33.1719 324.201 20.0682C344.23 6.85795 368.04 0.252829 395.632 0.252829C423.225 0.252829 446.982 6.85795 466.904 20.0682C486.932 33.2784 502.326 52.4545 513.086 77.5966C523.846 102.632 529.173 133.048 529.066 168.843C529.066 204.745 523.686 235.427 512.926 260.888C502.273 286.35 486.985 305.793 467.063 319.216C447.142 332.639 423.331 339.351 395.632 339.351ZM395.632 280.384C414.063 280.384 428.764 271.116 439.737 252.579C450.817 234.042 456.357 206.13 456.357 168.843C456.357 144.234 453.8 123.779 448.686 107.479C443.679 91.1797 436.648 78.9815 427.593 70.8849C418.537 62.6818 407.884 58.5803 395.632 58.5803C377.308 58.5803 362.66 67.7422 351.687 86.0661C340.714 104.39 335.121 131.982 334.908 168.843C334.908 193.665 337.411 214.386 342.419 231.006C347.426 247.518 354.457 259.876 363.512 268.08C372.674 276.283 383.381 280.384 395.632 280.384ZM554.946 332V280.704L672.08 173.477C681.775 164.209 689.925 155.846 696.53 148.388C703.241 140.931 708.302 133.58 711.711 126.336C715.227 118.985 716.984 111.048 716.984 102.526C716.984 93.044 714.854 84.8942 710.592 78.076C706.331 71.1513 700.472 65.8246 693.014 62.0959C685.663 58.3672 677.194 56.5028 667.606 56.5028C657.911 56.5028 649.389 58.527 642.038 62.5753C634.687 66.517 628.987 72.2166 624.939 79.674C620.997 87.0248 619.026 95.8672 619.026 106.201H551.271C551.271 84.5746 556.171 65.8246 565.972 49.951C575.773 34.0774 589.463 21.826 607.041 13.1967C624.619 4.56746 644.967 0.252829 668.085 0.252829C691.842 0.252829 712.51 4.40766 730.088 12.7173C747.773 20.9204 761.462 32.3729 771.157 47.0746C780.958 61.6697 785.859 78.5021 785.859 97.5717C785.859 109.93 783.408 122.181 778.508 134.326C773.607 146.364 764.925 159.734 752.46 174.436C739.996 189.031 722.364 206.609 699.566 227.17L653.703 271.755V273.832H790.173V332H554.946ZM938.541 336.474C914.357 336.474 892.891 332.32 874.141 324.01C855.497 315.7 840.796 304.195 830.036 289.493C819.276 274.791 813.683 257.852 813.257 238.676H885.167C885.487 246.453 887.99 253.325 892.678 259.29C897.472 265.15 903.811 269.731 911.694 273.033C919.684 276.336 928.686 277.987 938.7 277.987C948.928 277.987 957.983 276.176 965.867 272.554C973.857 268.825 980.089 263.765 984.563 257.373C989.038 250.874 991.222 243.417 991.115 235.001C991.222 226.371 988.878 218.808 984.084 212.309C979.396 205.704 972.632 200.537 963.789 196.808C954.947 193.08 944.453 191.215 932.308 191.215H901.627V139.28H932.308C942.642 139.28 951.751 137.522 959.634 134.006C967.518 130.491 973.644 125.59 978.012 119.305C982.486 112.913 984.67 105.509 984.563 97.0923C984.67 88.9957 982.806 81.9112 978.97 75.8388C975.135 69.7663 969.808 65.0256 962.99 61.6165C956.172 58.2074 948.235 56.5028 939.18 56.5028C929.911 56.5028 921.442 58.1541 913.771 61.4567C906.101 64.7592 899.975 69.4467 895.394 75.5192C890.92 81.5916 888.523 88.6761 888.203 96.7727H819.968C820.181 77.8097 825.508 61.0838 835.948 46.5952C846.495 32.1065 860.718 20.7606 878.615 12.5575C896.513 4.35439 916.754 0.252829 939.34 0.252829C962.138 0.252829 982.06 4.35439 999.105 12.5575C1016.26 20.7606 1029.57 31.8402 1039.06 45.7961C1048.64 59.7521 1053.38 75.4126 1053.28 92.7777C1053.49 111.102 1047.74 126.389 1036.02 138.641C1024.41 150.786 1009.39 158.403 990.955 161.492V164.049C1015.35 167.138 1033.89 175.501 1046.57 189.138C1059.35 202.668 1065.64 219.553 1065.42 239.795C1065.53 258.545 1060.15 275.217 1049.28 289.812C1038.42 304.301 1023.4 315.7 1004.22 324.01C985.149 332.32 963.257 336.474 938.541 336.474Z" fill="#EAEAEA"/>
</svg>
