<svg width="586" height="561" viewBox="0 0 586 561" fill="none" xmlns="http://www.w3.org/2000/svg">
<g filter="url(#filter0_ddd_1_2487)">
<rect x="210" y="121" width="165.46" height="141" rx="20" fill="#FAFAFA"/>
<path d="M241.328 171H237.765L237.789 169.16H241.328C242.546 169.16 243.562 168.906 244.375 168.398C245.187 167.883 245.796 167.164 246.203 166.242C246.617 165.312 246.824 164.227 246.824 162.984V161.941C246.824 160.965 246.707 160.098 246.472 159.34C246.238 158.574 245.894 157.93 245.441 157.406C244.988 156.875 244.433 156.473 243.777 156.199C243.128 155.926 242.382 155.789 241.539 155.789H237.695V153.938H241.539C242.656 153.938 243.675 154.125 244.597 154.5C245.519 154.867 246.312 155.402 246.976 156.105C247.648 156.801 248.164 157.645 248.523 158.637C248.882 159.621 249.062 160.73 249.062 161.965V162.984C249.062 164.219 248.882 165.332 248.523 166.324C248.164 167.309 247.644 168.148 246.964 168.844C246.292 169.539 245.48 170.074 244.527 170.449C243.582 170.816 242.515 171 241.328 171ZM238.972 153.938V171H236.71V153.938H238.972ZM254.886 153.938V171H252.625V153.938H254.886ZM268.093 166.688C268.093 166.289 268.031 165.938 267.906 165.633C267.789 165.32 267.578 165.039 267.273 164.789C266.976 164.539 266.562 164.301 266.031 164.074C265.507 163.848 264.843 163.617 264.039 163.383C263.195 163.133 262.433 162.855 261.753 162.551C261.074 162.238 260.492 161.883 260.007 161.484C259.523 161.086 259.152 160.629 258.894 160.113C258.636 159.598 258.507 159.008 258.507 158.344C258.507 157.68 258.644 157.066 258.917 156.504C259.191 155.941 259.582 155.453 260.089 155.039C260.605 154.617 261.218 154.289 261.929 154.055C262.64 153.82 263.433 153.703 264.308 153.703C265.589 153.703 266.675 153.949 267.566 154.441C268.464 154.926 269.148 155.562 269.617 156.352C270.085 157.133 270.32 157.969 270.32 158.859H268.07C268.07 158.219 267.933 157.652 267.66 157.16C267.386 156.66 266.972 156.27 266.417 155.988C265.863 155.699 265.16 155.555 264.308 155.555C263.503 155.555 262.839 155.676 262.316 155.918C261.792 156.16 261.402 156.488 261.144 156.902C260.894 157.316 260.769 157.789 260.769 158.32C260.769 158.68 260.843 159.008 260.992 159.305C261.148 159.594 261.386 159.863 261.707 160.113C262.035 160.363 262.449 160.594 262.949 160.805C263.457 161.016 264.062 161.219 264.765 161.414C265.734 161.688 266.57 161.992 267.273 162.328C267.976 162.664 268.554 163.043 269.007 163.465C269.468 163.879 269.808 164.352 270.027 164.883C270.253 165.406 270.367 166 270.367 166.664C270.367 167.359 270.226 167.988 269.945 168.551C269.664 169.113 269.261 169.594 268.738 169.992C268.214 170.391 267.585 170.699 266.851 170.918C266.125 171.129 265.312 171.234 264.414 171.234C263.625 171.234 262.847 171.125 262.082 170.906C261.324 170.688 260.632 170.359 260.007 169.922C259.39 169.484 258.894 168.945 258.519 168.305C258.152 167.656 257.968 166.906 257.968 166.055H260.218C260.218 166.641 260.332 167.145 260.558 167.566C260.785 167.98 261.093 168.324 261.484 168.598C261.882 168.871 262.332 169.074 262.832 169.207C263.339 169.332 263.867 169.395 264.414 169.395C265.203 169.395 265.871 169.285 266.417 169.066C266.964 168.848 267.378 168.535 267.66 168.129C267.949 167.723 268.093 167.242 268.093 166.688ZM283.55 165.574H285.8C285.683 166.652 285.375 167.617 284.875 168.469C284.375 169.32 283.667 169.996 282.753 170.496C281.839 170.988 280.699 171.234 279.332 171.234C278.332 171.234 277.421 171.047 276.601 170.672C275.789 170.297 275.089 169.766 274.503 169.078C273.917 168.383 273.464 167.551 273.144 166.582C272.832 165.605 272.675 164.52 272.675 163.324V161.625C272.675 160.43 272.832 159.348 273.144 158.379C273.464 157.402 273.921 156.566 274.515 155.871C275.117 155.176 275.839 154.641 276.683 154.266C277.527 153.891 278.476 153.703 279.531 153.703C280.82 153.703 281.91 153.945 282.8 154.43C283.691 154.914 284.382 155.586 284.875 156.445C285.375 157.297 285.683 158.285 285.8 159.41H283.55C283.441 158.613 283.238 157.93 282.941 157.359C282.644 156.781 282.222 156.336 281.675 156.023C281.128 155.711 280.414 155.555 279.531 155.555C278.773 155.555 278.105 155.699 277.527 155.988C276.957 156.277 276.476 156.688 276.085 157.219C275.703 157.75 275.414 158.387 275.218 159.129C275.023 159.871 274.925 160.695 274.925 161.602V163.324C274.925 164.16 275.011 164.945 275.183 165.68C275.363 166.414 275.632 167.059 275.992 167.613C276.351 168.168 276.808 168.605 277.363 168.926C277.917 169.238 278.574 169.395 279.332 169.395C280.292 169.395 281.058 169.242 281.628 168.938C282.199 168.633 282.628 168.195 282.917 167.625C283.214 167.055 283.425 166.371 283.55 165.574ZM302.019 161.93V163.008C302.019 164.289 301.859 165.438 301.539 166.453C301.218 167.469 300.757 168.332 300.156 169.043C299.554 169.754 298.832 170.297 297.988 170.672C297.152 171.047 296.214 171.234 295.175 171.234C294.167 171.234 293.242 171.047 292.398 170.672C291.562 170.297 290.835 169.754 290.218 169.043C289.609 168.332 289.136 167.469 288.8 166.453C288.464 165.438 288.296 164.289 288.296 163.008V161.93C288.296 160.648 288.46 159.504 288.789 158.496C289.125 157.48 289.597 156.617 290.207 155.906C290.816 155.188 291.539 154.641 292.375 154.266C293.218 153.891 294.144 153.703 295.152 153.703C296.191 153.703 297.128 153.891 297.964 154.266C298.808 154.641 299.531 155.188 300.132 155.906C300.742 156.617 301.207 157.48 301.527 158.496C301.855 159.504 302.019 160.648 302.019 161.93ZM299.781 163.008V161.906C299.781 160.891 299.675 159.992 299.464 159.211C299.261 158.43 298.96 157.773 298.562 157.242C298.164 156.711 297.675 156.309 297.097 156.035C296.527 155.762 295.878 155.625 295.152 155.625C294.449 155.625 293.812 155.762 293.242 156.035C292.679 156.309 292.195 156.711 291.789 157.242C291.39 157.773 291.082 158.43 290.863 159.211C290.644 159.992 290.535 160.891 290.535 161.906V163.008C290.535 164.031 290.644 164.938 290.863 165.727C291.082 166.508 291.394 167.168 291.8 167.707C292.214 168.238 292.703 168.641 293.265 168.914C293.835 169.188 294.472 169.324 295.175 169.324C295.91 169.324 296.562 169.188 297.132 168.914C297.703 168.641 298.183 168.238 298.574 167.707C298.972 167.168 299.273 166.508 299.476 165.727C299.679 164.938 299.781 164.031 299.781 163.008ZM315.167 153.938H317.417V165.48C317.417 166.762 317.132 167.828 316.562 168.68C315.992 169.531 315.234 170.172 314.289 170.602C313.351 171.023 312.332 171.234 311.23 171.234C310.074 171.234 309.027 171.023 308.089 170.602C307.16 170.172 306.421 169.531 305.875 168.68C305.335 167.828 305.066 166.762 305.066 165.48V153.938H307.304V165.48C307.304 166.371 307.468 167.105 307.796 167.684C308.125 168.262 308.582 168.691 309.167 168.973C309.761 169.254 310.449 169.395 311.23 169.395C312.019 169.395 312.707 169.254 313.292 168.973C313.886 168.691 314.347 168.262 314.675 167.684C315.003 167.105 315.167 166.371 315.167 165.48V153.938ZM334.093 153.938V171H331.82L323.23 157.84V171H320.968V153.938H323.23L331.855 167.133V153.938H334.093ZM344.054 153.938V171H341.828V153.938H344.054ZM349.539 153.938V155.789H336.355V153.938H349.539Z" fill="#322728"/>
<path d="M261.976 211.051L257.484 209.977L259.105 195.562H275.082V200.113H263.734L263.031 206.422C263.408 206.201 263.981 205.966 264.75 205.719C265.518 205.458 266.377 205.328 267.328 205.328C268.708 205.328 269.932 205.543 271 205.973C272.067 206.402 272.972 207.027 273.714 207.848C274.47 208.668 275.042 209.671 275.433 210.855C275.824 212.04 276.019 213.382 276.019 214.879C276.019 216.142 275.824 217.346 275.433 218.492C275.042 219.625 274.45 220.641 273.656 221.539C272.861 222.424 271.865 223.121 270.667 223.629C269.47 224.137 268.05 224.391 266.41 224.391C265.186 224.391 264.001 224.208 262.855 223.844C261.722 223.479 260.7 222.939 259.789 222.223C258.89 221.507 258.167 220.641 257.621 219.625C257.087 218.596 256.807 217.424 256.781 216.109H262.367C262.445 216.917 262.653 217.613 262.992 218.199C263.343 218.772 263.806 219.215 264.378 219.527C264.951 219.84 265.622 219.996 266.39 219.996C267.106 219.996 267.718 219.859 268.226 219.586C268.734 219.312 269.144 218.935 269.457 218.453C269.769 217.958 269.997 217.385 270.14 216.734C270.296 216.07 270.375 215.354 270.375 214.586C270.375 213.818 270.283 213.121 270.101 212.496C269.919 211.871 269.639 211.331 269.261 210.875C268.884 210.419 268.402 210.068 267.816 209.82C267.243 209.573 266.572 209.449 265.804 209.449C264.763 209.449 263.955 209.612 263.382 209.938C262.822 210.263 262.354 210.634 261.976 211.051ZM298.792 207.281V212.203C298.792 214.339 298.565 216.181 298.109 217.73C297.653 219.267 296.996 220.53 296.136 221.52C295.29 222.496 294.281 223.219 293.109 223.688C291.937 224.156 290.635 224.391 289.203 224.391C288.057 224.391 286.989 224.247 286 223.961C285.01 223.661 284.118 223.199 283.324 222.574C282.542 221.949 281.865 221.161 281.292 220.211C280.733 219.247 280.303 218.102 280.003 216.773C279.704 215.445 279.554 213.922 279.554 212.203V207.281C279.554 205.146 279.782 203.316 280.238 201.793C280.707 200.257 281.364 199 282.21 198.023C283.07 197.047 284.085 196.331 285.257 195.875C286.429 195.406 287.731 195.172 289.164 195.172C290.309 195.172 291.371 195.322 292.347 195.621C293.337 195.908 294.229 196.357 295.023 196.969C295.817 197.581 296.494 198.368 297.054 199.332C297.614 200.283 298.044 201.422 298.343 202.75C298.643 204.065 298.792 205.576 298.792 207.281ZM293.148 212.945V206.52C293.148 205.491 293.089 204.592 292.972 203.824C292.868 203.056 292.705 202.405 292.484 201.871C292.263 201.324 291.989 200.882 291.664 200.543C291.338 200.204 290.967 199.957 290.55 199.801C290.134 199.645 289.671 199.566 289.164 199.566C288.526 199.566 287.959 199.69 287.464 199.938C286.983 200.185 286.572 200.582 286.234 201.129C285.895 201.663 285.635 202.379 285.453 203.277C285.283 204.163 285.199 205.243 285.199 206.52V212.945C285.199 213.974 285.251 214.879 285.355 215.66C285.472 216.441 285.641 217.112 285.863 217.672C286.097 218.219 286.371 218.668 286.683 219.02C287.009 219.358 287.38 219.605 287.796 219.762C288.226 219.918 288.695 219.996 289.203 219.996C289.828 219.996 290.381 219.872 290.863 219.625C291.358 219.365 291.774 218.961 292.113 218.414C292.464 217.854 292.725 217.125 292.894 216.227C293.063 215.328 293.148 214.234 293.148 212.945ZM302.542 202.535V201.031C302.542 199.951 302.777 198.967 303.246 198.082C303.714 197.197 304.404 196.487 305.316 195.953C306.227 195.419 307.347 195.152 308.675 195.152C310.042 195.152 311.182 195.419 312.093 195.953C313.018 196.487 313.708 197.197 314.164 198.082C314.632 198.967 314.867 199.951 314.867 201.031V202.535C314.867 203.59 314.632 204.56 314.164 205.445C313.708 206.331 313.024 207.04 312.113 207.574C311.201 208.108 310.075 208.375 308.734 208.375C307.38 208.375 306.24 208.108 305.316 207.574C304.404 207.04 303.714 206.331 303.246 205.445C302.777 204.56 302.542 203.59 302.542 202.535ZM306.273 201.031V202.535C306.273 202.991 306.358 203.427 306.527 203.844C306.709 204.247 306.983 204.579 307.347 204.84C307.725 205.087 308.181 205.211 308.714 205.211C309.274 205.211 309.73 205.087 310.082 204.84C310.433 204.579 310.694 204.247 310.863 203.844C311.032 203.427 311.117 202.991 311.117 202.535V201.031C311.117 200.549 311.026 200.107 310.843 199.703C310.674 199.286 310.407 198.954 310.042 198.707C309.691 198.447 309.235 198.316 308.675 198.316C308.154 198.316 307.712 198.447 307.347 198.707C306.983 198.954 306.709 199.286 306.527 199.703C306.358 200.107 306.273 200.549 306.273 201.031ZM316.136 218.531V217.027C316.136 215.96 316.371 214.983 316.839 214.098C317.321 213.212 318.018 212.503 318.929 211.969C319.854 211.435 320.986 211.168 322.328 211.168C323.682 211.168 324.815 211.435 325.726 211.969C326.638 212.503 327.328 213.212 327.796 214.098C328.265 214.983 328.5 215.96 328.5 217.027V218.531C328.5 219.599 328.265 220.576 327.796 221.461C327.341 222.346 326.657 223.056 325.746 223.59C324.834 224.124 323.708 224.391 322.367 224.391C321.013 224.391 319.873 224.124 318.949 223.59C318.024 223.056 317.321 222.346 316.839 221.461C316.371 220.576 316.136 219.599 316.136 218.531ZM319.886 217.027V218.531C319.886 219 319.99 219.443 320.199 219.859C320.407 220.276 320.694 220.608 321.058 220.855C321.436 221.103 321.872 221.227 322.367 221.227C322.992 221.227 323.48 221.103 323.832 220.855C324.183 220.608 324.424 220.276 324.554 219.859C324.697 219.443 324.769 219 324.769 218.531V217.027C324.769 216.559 324.678 216.122 324.496 215.719C324.313 215.302 324.04 214.97 323.675 214.723C323.324 214.462 322.875 214.332 322.328 214.332C321.781 214.332 321.325 214.462 320.96 214.723C320.609 214.97 320.342 215.302 320.16 215.719C319.977 216.122 319.886 216.559 319.886 217.027ZM323.714 199.625L309.828 221.852L307.093 220.406L320.98 198.18L323.714 199.625Z" fill="#F47148"/>
</g>
<defs>
<filter id="filter0_ddd_1_2487" x="0" y="0" width="585.459" height="561" filterUnits="userSpaceOnUse" color-interpolation-filters="sRGB">
<feFlood flood-opacity="0" result="BackgroundImageFix"/>
<feColorMatrix in="SourceAlpha" type="matrix" values="0 0 0 0 0 0 0 0 0 0 0 0 0 0 0 0 0 0 127 0" result="hardAlpha"/>
<feOffset dy="5.91859"/>
<feGaussianBlur stdDeviation="6.98261"/>
<feColorMatrix type="matrix" values="0 0 0 0 0 0 0 0 0 0 0 0 0 0 0 0 0 0 0.04 0"/>
<feBlend mode="normal" in2="BackgroundImageFix" result="effect1_dropShadow_1_2487"/>
<feColorMatrix in="SourceAlpha" type="matrix" values="0 0 0 0 0 0 0 0 0 0 0 0 0 0 0 0 0 0 127 0" result="hardAlpha"/>
<feOffset dy="19.8793"/>
<feGaussianBlur stdDeviation="23.4531"/>
<feColorMatrix type="matrix" values="0 0 0 0 0 0 0 0 0 0 0 0 0 0 0 0 0 0 0.06 0"/>
<feBlend mode="normal" in2="effect1_dropShadow_1_2487" result="effect2_dropShadow_1_2487"/>
<feColorMatrix in="SourceAlpha" type="matrix" values="0 0 0 0 0 0 0 0 0 0 0 0 0 0 0 0 0 0 127 0" result="hardAlpha"/>
<feOffset dy="89"/>
<feGaussianBlur stdDeviation="105"/>
<feColorMatrix type="matrix" values="0 0 0 0 0 0 0 0 0 0 0 0 0 0 0 0 0 0 0.07 0"/>
<feBlend mode="normal" in2="effect2_dropShadow_1_2487" result="effect3_dropShadow_1_2487"/>
<feBlend mode="normal" in="SourceGraphic" in2="effect3_dropShadow_1_2487" result="shape"/>
</filter>
</defs>
</svg>
