<svg width="105" height="20" viewBox="0 0 105 20" fill="none" xmlns="http://www.w3.org/2000/svg">
<path d="M6.63636 19H0.721591V1.54545H6.75568C8.48864 1.54545 9.97727 1.89489 11.2216 2.59375C12.4716 3.28693 13.4318 4.28409 14.1023 5.58523C14.7727 6.88636 15.108 8.44318 15.108 10.2557C15.108 12.0739 14.7699 13.6364 14.0938 14.9432C13.4233 16.25 12.4545 17.2528 11.1875 17.9517C9.92614 18.6506 8.40909 19 6.63636 19ZM3.88352 16.2642H6.48295C7.69886 16.2642 8.71307 16.0426 9.52557 15.5994C10.3381 15.1506 10.9489 14.483 11.358 13.5966C11.767 12.7045 11.9716 11.5909 11.9716 10.2557C11.9716 8.92045 11.767 7.8125 11.358 6.93182C10.9489 6.04545 10.3438 5.38352 9.54261 4.94602C8.74716 4.50284 7.75852 4.28125 6.5767 4.28125H3.88352V16.2642ZM23.6861 19.2557C22.4077 19.2557 21.2997 18.9744 20.3622 18.4119C19.4247 17.8494 18.6974 17.0625 18.1804 16.0511C17.669 15.0398 17.4134 13.858 17.4134 12.5057C17.4134 11.1534 17.669 9.96875 18.1804 8.9517C18.6974 7.93466 19.4247 7.14489 20.3622 6.58239C21.2997 6.01989 22.4077 5.73864 23.6861 5.73864C24.9645 5.73864 26.0724 6.01989 27.0099 6.58239C27.9474 7.14489 28.6719 7.93466 29.1832 8.9517C29.7003 9.96875 29.9588 11.1534 29.9588 12.5057C29.9588 13.858 29.7003 15.0398 29.1832 16.0511C28.6719 17.0625 27.9474 17.8494 27.0099 18.4119C26.0724 18.9744 24.9645 19.2557 23.6861 19.2557ZM23.7031 16.7841C24.3963 16.7841 24.9759 16.5937 25.4418 16.2131C25.9077 15.8267 26.2543 15.3097 26.4815 14.6619C26.7145 14.0142 26.831 13.2926 26.831 12.4972C26.831 11.696 26.7145 10.9716 26.4815 10.3239C26.2543 9.67045 25.9077 9.15057 25.4418 8.7642C24.9759 8.37784 24.3963 8.18466 23.7031 8.18466C22.9929 8.18466 22.402 8.37784 21.9304 8.7642C21.4645 9.15057 21.1151 9.67045 20.8821 10.3239C20.6548 10.9716 20.5412 11.696 20.5412 12.4972C20.5412 13.2926 20.6548 14.0142 20.8821 14.6619C21.1151 15.3097 21.4645 15.8267 21.9304 16.2131C22.402 16.5937 22.9929 16.7841 23.7031 16.7841ZM35.6626 11.3295V19H32.5774V5.90909H35.5263V8.13352H35.6797C35.9808 7.40057 36.4609 6.81818 37.12 6.38636C37.7848 5.95455 38.6058 5.73864 39.5831 5.73864C40.4865 5.73864 41.2734 5.93182 41.9439 6.31818C42.62 6.70455 43.1428 7.2642 43.5121 7.99716C43.8871 8.73011 44.0717 9.61932 44.0661 10.6648V19H40.9808V11.142C40.9808 10.267 40.7536 9.58239 40.299 9.08807C39.8501 8.59375 39.228 8.34659 38.4325 8.34659C37.8928 8.34659 37.4126 8.46591 36.9922 8.70455C36.5774 8.9375 36.2507 9.27557 36.0121 9.71875C35.7791 10.1619 35.6626 10.6989 35.6626 11.3295ZM55.5462 13.4943V5.90909H58.6314V19H55.6399V16.6733H55.5036C55.2081 17.4062 54.7223 18.0057 54.0462 18.4716C53.3757 18.9375 52.549 19.1705 51.5661 19.1705C50.7081 19.1705 49.9496 18.9801 49.2905 18.5994C48.6371 18.2131 48.1257 17.6534 47.7564 16.9205C47.3871 16.1818 47.2024 15.2898 47.2024 14.2443V5.90909H50.2876V13.767C50.2876 14.5966 50.5149 15.2557 50.9695 15.7443C51.424 16.233 52.0206 16.4773 52.7592 16.4773C53.2138 16.4773 53.6541 16.3665 54.0803 16.1449C54.5064 15.9233 54.8558 15.5938 55.1286 15.1562C55.407 14.7131 55.5462 14.1591 55.5462 13.4943ZM68.3409 5.90909V8.29545H60.8153V5.90909H68.3409ZM62.6733 2.77273H65.7585V15.0625C65.7585 15.4773 65.821 15.7955 65.946 16.017C66.0767 16.233 66.2472 16.3807 66.4574 16.4602C66.6676 16.5398 66.9006 16.5795 67.1562 16.5795C67.3494 16.5795 67.5256 16.5653 67.6847 16.5369C67.8494 16.5085 67.9744 16.483 68.0597 16.4602L68.5795 18.8722C68.4148 18.929 68.179 18.9915 67.8722 19.0597C67.571 19.1278 67.2017 19.1676 66.7642 19.179C65.9915 19.2017 65.2955 19.0852 64.6761 18.8295C64.0568 18.5682 63.5653 18.1648 63.2017 17.6193C62.8438 17.0739 62.6676 16.392 62.6733 15.5739V2.77273ZM77.5518 5.90909V8.29545H69.8132V5.90909H77.5518ZM71.7479 19V4.67329C71.7479 3.79261 71.9297 3.05966 72.2933 2.47443C72.6626 1.8892 73.157 1.4517 73.7763 1.16193C74.3956 0.872158 75.0831 0.727272 75.8388 0.727272C76.3729 0.727272 76.8473 0.769886 77.2621 0.855114C77.6768 0.940341 77.9837 1.01705 78.1825 1.08523L77.5689 3.47159C77.4382 3.43182 77.2734 3.39204 77.0746 3.35227C76.8757 3.30682 76.6541 3.28409 76.4098 3.28409C75.8359 3.28409 75.4297 3.4233 75.1911 3.7017C74.9581 3.97443 74.8416 4.36648 74.8416 4.87784V19H71.7479ZM88.3118 13.4943V5.90909H91.397V19H88.4055V16.6733H88.2692C87.9737 17.4062 87.4879 18.0057 86.8118 18.4716C86.1413 18.9375 85.3146 19.1705 84.3317 19.1705C83.4737 19.1705 82.7152 18.9801 82.0561 18.5994C81.4027 18.2131 80.8913 17.6534 80.522 16.9205C80.1527 16.1818 79.968 15.2898 79.968 14.2443V5.90909H83.0533V13.767C83.0533 14.5966 83.2805 15.2557 83.7351 15.7443C84.1896 16.233 84.7862 16.4773 85.5249 16.4773C85.9794 16.4773 86.4197 16.3665 86.8459 16.1449C87.272 15.9233 87.6214 15.5938 87.8942 15.1562C88.1726 14.7131 88.3118 14.1591 88.3118 13.4943ZM97.6548 1.54545V19H94.5696V1.54545H97.6548Z" fill="black"/>
<path d="M102.728 19.1875C102.211 19.1875 101.768 19.0057 101.398 18.642C101.029 18.2784 100.847 17.8352 100.853 17.3125C100.847 16.8011 101.029 16.3636 101.398 16C101.768 15.6364 102.211 15.4545 102.728 15.4545C103.228 15.4545 103.663 15.6364 104.032 16C104.407 16.3636 104.597 16.8011 104.603 17.3125C104.597 17.6591 104.506 17.9744 104.33 18.2585C104.16 18.5426 103.933 18.7699 103.648 18.9403C103.37 19.1051 103.063 19.1875 102.728 19.1875Z" fill="#CE3D15"/>
</svg>
