<svg width="587" height="132" viewBox="0 0 587 132" fill="none" xmlns="http://www.w3.org/2000/svg">
<path d="M46.3033 130H0.81321V2.72727H46.614C59.4158 2.72727 70.4569 5.27521 79.7372 10.3711C89.0175 15.4255 96.1642 22.6965 101.177 32.1839C106.19 41.6714 108.697 53.0439 108.697 66.3015C108.697 79.5591 106.19 90.9523 101.177 100.481C96.1642 109.969 88.9968 117.26 79.6751 122.356C70.3533 127.452 59.2294 130 46.3033 130ZM28.4677 106.261H45.1225C52.9528 106.261 59.5194 104.893 64.8224 102.159C70.1669 99.3833 74.1856 95.0539 76.8786 89.1708C79.6129 83.2878 80.9801 75.6647 80.9801 66.3015C80.9801 56.8969 79.6129 49.2738 76.8786 43.4322C74.1856 37.5906 70.1669 33.3026 64.8224 30.5682C59.5194 27.8338 52.9528 26.4666 45.1225 26.4666H28.4677V106.261ZM236.961 66.3636C236.961 80.2841 234.309 92.1123 229.006 101.848C223.745 111.584 216.598 119 207.566 124.096C198.534 129.192 188.384 131.74 177.115 131.74C165.763 131.74 155.572 129.171 146.54 124.034C137.55 118.897 130.424 111.46 125.162 101.724C119.9 91.988 117.27 80.2012 117.27 66.3636C117.27 52.4432 119.9 40.6149 125.162 30.8789C130.424 21.1429 137.55 13.7269 146.54 8.63104C155.572 3.53515 165.763 0.987211 177.115 0.987211C188.384 0.987211 198.534 3.53515 207.566 8.63104C216.598 13.7269 223.745 21.1429 229.006 30.8789C234.309 40.6149 236.961 52.4432 236.961 66.3636ZM208.809 66.3636C208.809 57.5391 207.504 50.0817 204.894 43.9915C202.284 37.9013 198.597 33.3026 193.832 30.1953C189.109 27.0466 183.537 25.4723 177.115 25.4723C170.694 25.4723 165.1 27.0466 160.336 30.1953C155.613 33.3026 151.946 37.9013 149.336 43.9915C146.726 50.0817 145.421 57.5391 145.421 66.3636C145.421 75.1882 146.726 82.6456 149.336 88.7358C151.946 94.826 155.613 99.4454 160.336 102.594C165.1 105.701 170.694 107.255 177.115 107.255C183.537 107.255 189.109 105.701 193.832 102.594C198.597 99.4454 202.284 94.826 204.894 88.7358C207.504 82.6456 208.809 75.1882 208.809 66.3636ZM354.52 2.72727V130H330.657L276.28 51.3246H275.348V130H247.693V2.72727H271.805L325.809 81.3406H326.866V2.72727H354.52ZM445.528 2.72727H473.245V85.2557C473.245 94.5774 471.028 102.739 466.595 109.741C462.162 116.701 455.969 122.108 448.014 125.961C440.059 129.814 430.8 131.74 420.235 131.74C409.629 131.74 400.349 129.814 392.394 125.961C384.44 122.108 378.267 116.701 373.875 109.741C369.484 102.739 367.288 94.5774 367.288 85.2557V2.72727H394.942V82.8942C394.942 87.6172 395.978 91.843 398.05 95.5717C400.162 99.3004 403.125 102.221 406.936 104.334C410.748 106.406 415.181 107.441 420.235 107.441C425.331 107.441 429.764 106.406 433.534 104.334C437.346 102.221 440.287 99.3004 442.359 95.5717C444.472 91.843 445.528 87.6172 445.528 82.8942V2.72727ZM481.243 25.4723V2.72727H586.454V25.4723H547.551V130H520.208V25.4723H481.243Z" fill="#EAEAEA"/>
</svg>
